<?xml version="1.0" encoding="UTF-8"?>
<svg width="800px" height="198px" viewBox="0 0 800 198" version="1.1" xmlns="http://www.w3.org/2000/svg" xmlns:xlink="http://www.w3.org/1999/xlink">
    <title>LOGO</title>
    <defs>
        <polygon id="path-1" points="0 0 800 0 800 198 0 198"></polygon>
    </defs>
    <g id="LOGO" stroke="none" stroke-width="1" fill="none" fill-rule="evenodd">
        <mask id="mask-2" fill="white">
            <use xlink:href="#path-1"></use>
        </mask>
        <g id="Clip-2"></g>
        <path d="M401.164879,181.095492 L401.164879,182.293403 C397.599004,190.376317 385.922357,198.459232 371.877745,198.459232 C351.839599,198.459232 341.667305,185.835399 341.667305,168.865656 C341.667305,146.200861 361.717391,131.376215 398.184031,129.804205 L398.184031,132.355238 C388.775852,136.394706 366.23443,141.655963 366.807517,163.76359 C367.137838,176.634169 373.075656,184.41462 387.120268,184.41462 C392.222334,184.41462 399.075499,182.293403 401.164879,181.095492 L401.164879,181.095492 Z M260.14568,195.764927 C286.762387,194.264553 301.415903,168.849737 301.415903,133.863571 C301.415903,102.757683 285.564476,82.7314759 252.974132,82.7314759 C246.996517,82.7314759 241.396979,84.518393 234.511976,87.8136433 L231.439593,87.2087181 C243.701266,76.7419208 262.243019,68.0700002 276.598052,68.0700002 C309.188395,68.0700002 327.730148,88.7090917 327.730148,126.684065 C327.730148,164.062072 299.923489,196.660375 260.14568,198.152789 L260.14568,195.764927 Z M225.76046,0 C225.457997,12.2616739 225.76046,161.069285 225.76046,161.069285 C225.76046,169.14424 227.857799,179.014071 232.335041,184.995667 C236.824222,191.275745 243.104301,194.865499 251.179256,196.05943 L251.179256,198.447292 C235.924794,196.954878 219.782844,190.6748 209.013584,185.592633 L208.719081,185.592633 L197.949821,194.264553 L195.856462,193.365125 C198.849249,186.488081 200.04716,168.551254 200.04716,156.28958 L200.04716,18.1915324 C200.05114,9.43603663 192.951229,2.34010525 184.195733,2.34010525 L184.195733,2.34010525 L184.195733,0.48155227 L225.76046,0 Z M151.275069,193.667588 L151.275069,196.05943 L88.7130715,196.031572 L88.7130715,193.667588 C88.7130715,193.667588 94.12158,191.434936 99.3788573,183.085377 C101.328945,179.985136 102.737784,174.544789 102.737784,166.231048 L102.733804,87.2286169 L102.733804,87.2286169 C102.733804,78.023407 95.2717338,70.557357 86.0625441,70.5613367 L82.8309702,70.5613367 L82.8309702,68.2371506 L128.49884,67.7158006 L128.49884,166.231048 C128.49884,171.432608 128.729667,182.094414 134.046641,187.20046 C139.988439,192.911431 147.474388,193.265631 151.275069,193.667588 L151.275069,193.667588 Z M93.1823541,175.078078 L93.1823541,176.279969 C89.1826844,182.472492 77.6254299,198.152789 54.5387794,198.152789 C37.2068774,198.152789 19.4769984,191.618006 19.4769984,159.206752 L19.4650591,89.9865981 C19.4411805,79.2491764 10.7334419,70.557357 0,70.557357 L0,70.557357 L0,68.1655147 L45.2499943,67.7158006 L45.2499943,151.107918 C45.2499943,162.303014 45.1942775,181.370096 70.1076429,181.370096 C83.5194705,181.370096 89.7876096,177.282871 93.1823541,175.078078 L93.1823541,175.078078 Z M183.324163,86.8346196 C183.324163,95.4468437 178.918557,103.31883 167.74336,103.31883 C162.931818,103.31883 153.666911,100.469314 153.666911,89.8313871 C153.666911,83.9612251 155.859765,80.7455703 156.663679,79.9416566 C156.261722,79.5556188 152.787382,77.9756498 145.568077,82.3494179 C142.201191,84.3910403 139.077071,88.0404902 136.295211,93.4290999 L136.028567,92.6172266 C136.565836,90.161708 139.172586,82.8906667 147.076411,75.4564548 C151.338745,71.4408661 157.443714,67.9585666 164.746593,67.9585666 C173.744855,67.9585666 183.324163,72.1134473 183.324163,86.8346196 L183.324163,86.8346196 Z M760.828708,70.764305 C740.492079,73.1601271 716.872139,93.4927762 716.872139,125.788616 C716.872139,164.062072 737.503271,177.521657 759.033831,177.521657 C776.676155,177.521657 791.632134,170.043668 798.509178,160.472319 L800.001592,161.67421 C793.427011,177.81616 779.067997,198.447292 746.469695,198.447292 C711.189026,198.447292 691.453343,172.137027 691.453343,137.747828 C691.453343,95.8806387 730.626227,70.764305 760.828708,68.3724628 L760.828708,70.764305 Z M649.47472,4.08324487 C658.751566,4.08324487 665.62861,11.8557373 665.62861,20.5276579 C665.62861,29.1995785 658.751566,36.6735882 649.47472,36.6735882 C640.802799,36.6735882 633.33277,29.1995785 633.33277,20.5276579 C633.33277,11.8557373 640.802799,4.08324487 649.47472,4.08324487 L649.47472,4.08324487 Z M637.213046,93.6559468 L637.213046,87.5708772 C637.209066,78.1666788 629.579846,70.5454176 620.171667,70.557357 L620.171667,68.2371506 L663.0139,67.7158006 C662.711438,79.9734947 662.934305,166.159412 662.934305,166.159412 C662.934305,185.592633 667.717989,191.570248 683.565437,193.667588 L683.565437,196.05943 L617.783805,196.05943 L617.783805,193.667588 C634.522721,191.275745 637.213046,186.488081 637.213046,166.159412 L637.213046,93.6559468 Z M563.770355,110.832638 C563.770355,94.3882247 558.091222,84.8208556 539.247007,84.8208556 C530.575087,84.8208556 521.903166,86.914215 514.727639,89.6085199 L514.727639,89.0035947 C524.597471,77.346846 541.344347,68.0700002 555.400897,68.0700002 C579.31932,68.0700002 589.491614,82.7314759 589.491614,105.451988 L589.491614,166.159412 C589.491614,186.488081 592.17398,191.275745 608.924835,193.667588 L608.924835,196.05943 L544.034672,196.05943 L544.034672,193.667588 C559.583636,191.275745 563.770355,185.592633 563.770355,166.159412 L563.770355,110.832638 Z M505.761216,166.159412 C505.761216,185.592633 509.943955,191.275745 525.492919,193.667588 L525.492919,196.05943 L460.606736,196.05943 L460.606736,193.667588 C477.349632,191.275745 480.039957,186.488081 480.039957,166.159412 L480.043937,86.4087842 C480.047916,77.6532883 472.951985,70.5533772 464.196489,70.557357 L464.196489,68.2132719 L505.761216,67.7158006 L505.761216,166.159412 Z M370.082869,78.5367975 C375.467499,74.0515957 390.714001,68.0700002 399.385921,68.0700002 C420.912502,68.0700002 432.879673,78.2422944 432.879673,102.164697 L432.879673,170.636654 C432.879673,181.103451 436.461466,184.693204 444.838884,184.693204 C448.126175,184.693204 452.312894,183.503253 455.003219,182.002879 L455.003219,184.100219 C451.715928,190.380297 443.640973,198.447292 429.584422,198.447292 C415.233369,198.447292 407.158414,188.879923 407.158414,173.330959 L407.158414,102.757683 C407.158414,87.5111807 396.098631,79.4362257 370.082869,79.4362257 L370.082869,78.5367975 Z M362.513345,85.3183269 C369.987354,85.3183269 376.267433,91.6023851 376.267433,99.0724149 C376.267433,107.15135 369.987354,113.128965 362.513345,113.128965 C355.039335,113.128965 348.759257,107.15135 348.759257,99.0724149 C348.759257,91.6023851 355.039335,85.3183269 362.513345,85.3183269 L362.513345,85.3183269 Z M768.219142,84.1005171 C768.219142,92.1675125 774.5032,98.4475909 782.578155,98.4475909 C790.65311,98.4475909 796.929209,92.1675125 796.929209,84.1005171 C796.929209,76.0215823 790.65311,69.7415039 782.578155,69.7415039 C774.5032,69.7415039 768.219142,76.0215823 768.219142,84.1005171 L768.219142,84.1005171 Z" id="Fill-1" fill="#000000" mask="url(#mask-2)"></path>
    </g>
</svg>